P3
10 10
255
192
192
192
192
192
192
192
192
192
192
192
192
192
192
192
51
51
51
192
192
192
192
192
192
192
192
192
192
192
192
192
192
192
192
192
192
192
192
192
192
192
192
51
51
51
51
51
51
192
192
192
192
192
192
192
192
192
192
192
192
192
192
192
192
192
192
192
192
192
51
51
51
51
51
51
51
51
51
192
192
192
192
192
192
51
51
51
192
192
192
51
51
51
51
51
51
51
51
51
51
51
51
51
51
51
51
51
51
192
192
192
192
192
192
192
192
192
51
51
51
51
51
51
51
51
51
51
51
51
51
51
51
51
51
51
51
51
51
192
192
192
192
192
192
192
192
192
51
51
51
51
51
51
51
51
51
51
51
51
51
51
51
51
51
51
51
51
51
192
192
192
192
192
192
192
192
192
51
51
51
51
51
51
51
51
51
51
51
51
51
51
51
51
51
51
51
51
51
192
192
192
192
192
192
192
192
192
51
51
51
192
192
192
192
192
192
192
192
192
51
51
51
51
51
51
51
51
51
192
192
192
192
192
192
51
51
51
192
192
192
192
192
192
192
192
192
192
192
192
192
192
192
51
51
51
51
51
51
192
192
192
192
192
192
192
192
192
192
192
192
192
192
192
192
192
192
192
192
192
192
192
192
192
192
192
51
51
51
192
192
192
192
192
192
192
192
192
192
192
192
