P3
10 10
255
172
172
188
170
170
187
168
168
187
164
164
186
160
160
185
153
153
184
192
192
192
192
192
192
192
192
192
192
192
192
153
153
184
149
149
183
144
144
182
137
137
180
128
128
179
153
153
184
192
192
192
192
192
192
192
192
192
192
192
192
115
115
176
106
106
174
96
96
172
82
82
169
96
96
172
115
115
176
144
144
182
128
128
179
96
96
172
192
192
192
57
57
164
64
64
166
72
72
167
82
82
169
96
96
172
115
115
176
144
144
182
128
128
179
96
96
172
0
0
153
57
57
164
64
64
166
72
72
167
82
82
169
96
96
172
115
115
176
144
144
182
128
128
179
96
96
172
0
0
153
57
57
164
64
64
166
72
72
167
82
82
169
96
96
172
115
115
176
144
144
182
128
128
179
96
96
172
0
0
153
57
57
164
64
64
166
72
72
167
82
82
169
96
96
172
115
115
176
144
144
182
128
128
179
96
96
172
0
0
153
115
115
176
106
106
174
96
96
172
82
82
169
96
96
172
115
115
176
144
144
182
128
128
179
96
96
172
192
192
192
153
153
184
149
149
183
144
144
182
137
137
180
128
128
179
153
153
184
192
192
192
192
192
192
192
192
192
192
192
192
172
172
188
170
170
187
168
168
187
164
164
186
160
160
185
153
153
184
192
192
192
192
192
192
192
192
192
192
192
192
